<svg width="40" height="47" viewBox="0 0 40 47" fill="none" xmlns="http://www.w3.org/2000/svg">
<path d="M0 0V47H40V0H0ZM2.30769 1.86344H29.2308V36.8546H2.30769V1.86344ZM31.2821 3.51982H37.6923V10.3524H31.2821V3.51982ZM33.5897 5.38326V8.48899H35.3846V5.38326H33.5897ZM7.5641 6.10793V8.48899H5.51282V10.3524H26.0256V8.48899H17.8205V5.27974L15.7692 5.90088L15 8.48899H11.6667V6.10793H7.5641ZM32.4359 11.8018H36.5385V13.6652H32.4359V11.8018ZM20.8974 12.9198C20.2051 12.9198 19.6026 13.2304 19.2564 13.6134C18.8846 14.1207 18.6795 14.6073 18.7308 15.1145H5.51282V16.978H26.0256V15.1145H23.0641C23.1026 14.5866 22.859 13.9758 22.5385 13.6134C22.1923 13.2304 21.5897 12.9198 20.8974 12.9198ZM32.4359 15.1145H36.5385V16.978H32.4359V15.1145ZM7.5641 19.359V21.7401H5.51282V23.6035H26.0256V21.7401H22.9487V19.359H19.8718V21.7401H15.7692V18.5308H13.7179V21.7401H9.61539V20.1872L7.5641 19.359ZM8.58974 25.7154C7.80769 25.7154 7.20513 26.1192 6.88461 26.5436C6.47436 27.1751 6.37179 27.7341 6.4359 28.3656H5.51282V30.2291H26.0256V28.3656H17.8205V25.9846H13.7179V28.3656H10.7436C10.8205 27.7445 10.6538 27.0198 10.2949 26.5436C9.97436 26.1192 9.37179 25.7154 8.58974 25.7154ZM32.4359 33.3348H36.5385V35.1982H32.4359V33.3348ZM2.30769 38.7181H29.2308V45.1366H2.30769V38.7181ZM4.61538 40.5815V43.2731H26.9231V40.5815H4.61538Z" fill="white"/>
</svg>
